# xmcd
#
# Track frame offsets:
#	150
#	21362
#	40337
#	57100
#	69857
#	81360
#	100195
#	115402
#	131295
#	146797
#
# Disc length: 2123 seconds
#
# Revision: 1
# Processed by: cddbd v1.5.1PL2 Copyright (c) Steve Scherf et al.
# Submitted via: audiograbber 1.83.01
#
DISCID=8708490a
DTITLE=Michael Peters - I Won't Love Again
DYEAR=1900
DGENRE=Country
TTITLE0=I Won't Love Again
TTITLE1=Oklahoma Skyline
TTITLE2=I Wonder What You're Doing Now?
TTITLE3=Grandpa's Day
TTITLE4=Mississippi Runner
TTITLE5=Losin' State Of mind
TTITLE6=She's Why I'm Gone
TTITLE7=Little Old House Out Back, The
TTITLE8=Back On Track
TTITLE9=Everybody Gets The Blues
EXTD=
EXTT0=
EXTT1=
EXTT2=
EXTT3=
EXTT4=
EXTT5=
EXTT6=
EXTT7=
EXTT8=
EXTT9=
PLAYORDER=
